<svg width="192" height="27" viewBox="0 0 192 27" fill="none" xmlns="http://www.w3.org/2000/svg">
<path d="M0.861328 0.267578L22.1836 0.232422L21.9902 12.7656H21.3398C21.3633 11.2891 21.2754 9.98828 21.0762 8.86328C20.8887 7.72656 20.6309 6.74219 20.3027 5.91016C19.9863 5.07813 19.6172 4.38086 19.1953 3.81836C18.7734 3.24414 18.3398 2.76953 17.8945 2.39453C17.4492 2.01953 17.0098 1.73242 16.5762 1.5332C16.1543 1.33398 15.7734 1.1875 15.4336 1.09375C15.1055 1 14.8359 0.941406 14.625 0.917969C14.4258 0.894531 14.3262 0.882812 14.3262 0.882812C13.9863 0.882812 13.6348 0.888672 13.2715 0.900391C12.9199 0.912109 12.5742 0.917969 12.2344 0.917969C12.2227 1.05859 12.2051 1.35742 12.1816 1.81445C12.1699 2.27148 12.1465 2.95703 12.1113 3.87109C12.0762 4.77344 12.0352 5.94531 11.9883 7.38672C11.9414 8.81641 11.8945 10.5742 11.8477 12.6602C11.9531 12.6484 12.1523 12.6309 12.4453 12.6074C12.75 12.584 13.0898 12.5195 13.4648 12.4141C13.8516 12.2969 14.25 12.1211 14.6602 11.8867C15.0703 11.6406 15.4453 11.3008 15.7852 10.8672C16.125 10.4219 16.4004 9.85938 16.6113 9.17969C16.834 8.5 16.9395 7.66797 16.9277 6.68359H17.5605H16.9277H17.5605L17.3848 20.0957H16.7344C16.6992 18.9473 16.5527 17.8984 16.2949 16.9492C16.1895 16.5508 16.0488 16.1523 15.873 15.7539C15.6973 15.3555 15.4863 14.9922 15.2402 14.6641C14.9941 14.3242 14.7012 14.0371 14.3613 13.8027C14.0215 13.5684 13.6289 13.4102 13.1836 13.3281L11.8477 13.293L11.6367 24.3848H16.207C16.4648 24.3613 16.8164 24.2969 17.2617 24.1914C17.707 24.0859 18.1816 23.9102 18.6855 23.6641C19.2012 23.418 19.7227 23.084 20.25 22.6621C20.7773 22.2402 21.2578 21.6953 21.6914 21.0273C22.1367 20.3477 22.5 19.5332 22.7812 18.584C23.0742 17.623 23.2441 16.4863 23.291 15.1738H23.9414L23.6602 25.0352H0.896484V24.3848H5.04492L5.15039 0.917969H0.861328V0.267578ZM33.8379 13.8379C34.1895 13.1465 34.5645 12.6016 34.9629 12.2031C35.3613 11.8047 35.7305 11.4941 36.0703 11.2715C36.457 11.0254 36.8496 10.8496 37.248 10.7441C37.7402 10.6973 38.1621 10.7441 38.5137 10.8848C38.877 11.0137 39.1699 11.207 39.3926 11.4648C39.627 11.7227 39.7969 12.0273 39.9023 12.3789C40.0078 12.7305 40.0605 13.0996 40.0605 13.4863C40.0605 13.8613 40.0195 14.2422 39.9375 14.6289C39.8672 15.0156 39.7676 15.3848 39.6387 15.7363C39.5215 16.0879 39.375 16.4102 39.1992 16.7031C39.0352 16.9961 38.8652 17.2305 38.6895 17.4062H38.7246C38.3848 17.7695 38.0625 18.0215 37.7578 18.1621C37.4531 18.3027 37.1543 18.373 36.8613 18.373C36.334 18.373 35.9062 18.209 35.5781 17.8809C35.25 17.5527 35.0859 17.1074 35.0859 16.5449C35.0859 16.1113 35.1855 15.6367 35.3848 15.1211C35.584 14.6055 35.918 14.1309 36.3867 13.6973C36.6914 13.4395 37.0078 13.2285 37.3359 13.0645C37.6172 12.9238 37.9336 12.8125 38.2852 12.7305C38.6367 12.6484 38.9883 12.6719 39.3398 12.8008C39.2461 12.3555 39.041 11.9922 38.7246 11.7109C38.4082 11.4297 37.9395 11.3242 37.3184 11.3945C36.873 11.4883 36.4395 11.6934 36.0176 12.0098C35.6543 12.2793 35.2734 12.6836 34.875 13.2227C34.4883 13.75 34.1543 14.4707 33.873 15.3848L34.0488 24.6836L37.0723 24.5957V25.2461L26.2441 25.4746V24.8242L28.582 24.7891L28.7227 11.8164L26.8066 11.7109V11.0605L33.8027 11.3594L33.8379 13.8379ZM41.7832 11.2891L49.6055 11.0605L49.3418 24.3848H52.2949V25.0352H41.3613V24.3848H44.2793L44.3848 11.8516L41.7832 11.9395V11.2891ZM49.9922 6.5957C49.957 7.05273 49.834 7.48633 49.623 7.89648C49.4238 8.29492 49.1602 8.64648 48.832 8.95117C48.5039 9.24414 48.1289 9.47266 47.707 9.63672C47.2852 9.80078 46.8457 9.87109 46.3887 9.84766C45.9082 9.83594 45.4688 9.73047 45.0703 9.53125C44.6719 9.33203 44.332 9.07422 44.0508 8.75781C43.7695 8.42969 43.5586 8.05469 43.418 7.63281C43.2773 7.21094 43.2246 6.75977 43.2598 6.2793C43.2832 5.82227 43.4004 5.39453 43.6113 4.99609C43.8223 4.59766 44.0859 4.25781 44.4023 3.97656C44.7305 3.68359 45.1055 3.46094 45.5273 3.30859C45.9492 3.14453 46.3828 3.06836 46.8281 3.08008C47.2969 3.0918 47.7305 3.19727 48.1289 3.39648C48.5273 3.58398 48.8672 3.83594 49.1484 4.15234C49.4414 4.46875 49.6582 4.83789 49.7988 5.25977C49.9512 5.68164 50.0156 6.12695 49.9922 6.5957ZM67.7812 15.1035C67.7812 15.4434 67.7285 15.7773 67.623 16.1055C67.5176 16.4219 67.3652 16.709 67.166 16.9668C66.9668 17.2129 66.7148 17.4121 66.4102 17.5645C66.1172 17.7168 65.7715 17.793 65.373 17.793C65.1504 17.793 64.9102 17.752 64.6523 17.6699C64.3945 17.5762 64.1543 17.4414 63.9316 17.2656C63.7207 17.0898 63.5391 16.873 63.3867 16.6152C63.2461 16.3457 63.1758 16.0352 63.1758 15.6836C63.1758 15.4844 63.1992 15.2793 63.2461 15.0684C63.293 14.8457 63.3398 14.623 63.3867 14.4004C63.4453 14.1777 63.498 13.9668 63.5449 13.7676C63.5918 13.5684 63.6152 13.3867 63.6152 13.2227C63.6152 12.3906 63.416 11.7402 63.0176 11.2715C62.6191 10.8027 62.1211 10.5684 61.5234 10.5684C61.1484 10.5684 60.8027 10.7734 60.4863 11.1836C60.1699 11.582 59.8945 12.1328 59.6602 12.8359C59.4375 13.5391 59.2617 14.3594 59.1328 15.2969C59.0156 16.2227 58.957 17.2129 58.957 18.2676C58.957 20.7051 59.2441 22.5215 59.8184 23.7168C60.3926 24.9121 61.1426 25.5098 62.0684 25.5098C62.6309 25.5098 63.1523 25.3809 63.6328 25.123C64.125 24.877 64.5762 24.5488 64.9863 24.1387C65.3965 23.7285 65.7539 23.2715 66.0586 22.7676C66.375 22.252 66.6387 21.7363 66.8496 21.2207L67.5 21.4316C67.2422 22.2285 66.9141 22.9023 66.5156 23.4531C66.1172 23.9922 65.6895 24.4434 65.2324 24.8066C64.7754 25.1699 64.3125 25.4512 63.8438 25.6504C63.3867 25.8496 62.959 25.9961 62.5605 26.0898C62.1738 26.1953 61.8457 26.2539 61.5762 26.2656C61.3066 26.2891 61.1426 26.3008 61.084 26.3008C59.9355 26.3008 58.8984 26.0605 57.9727 25.5801C57.0586 25.1113 56.2793 24.5137 55.6348 23.7871C55.002 23.0605 54.5156 22.2578 54.1758 21.3789C53.8359 20.5 53.666 19.6562 53.666 18.8477C53.666 18.3086 53.7363 17.7168 53.877 17.0723C54.0176 16.416 54.2285 15.7598 54.5098 15.1035C54.8027 14.4355 55.166 13.791 55.5996 13.1699C56.0332 12.5488 56.5371 11.998 57.1113 11.5176C57.6855 11.0371 58.3301 10.6504 59.0449 10.3574C59.7598 10.0645 60.5508 9.91797 61.418 9.91797C62.4727 9.91797 63.3984 10.0762 64.1953 10.3926C64.9922 10.709 65.6543 11.1191 66.1816 11.623C66.7207 12.127 67.1191 12.6836 67.377 13.293C67.6465 13.9023 67.7812 14.5059 67.7812 15.1035ZM83.3027 25.6855C83.5605 25.6621 83.8066 25.5332 84.041 25.2988C84.2402 25.0996 84.4453 24.7832 84.6562 24.3496C84.8672 23.9043 85.043 23.2715 85.1836 22.4512L85.834 22.5215C85.6699 23.4941 85.4473 24.2383 85.166 24.7539C84.8965 25.2695 84.6211 25.6445 84.3398 25.8789C84.0117 26.1602 83.666 26.3125 83.3027 26.3359C83.0215 26.3359 82.6582 26.2949 82.2129 26.2129C81.7793 26.1309 81.3457 25.9844 80.9121 25.7734C80.4785 25.5742 80.0801 25.3047 79.7168 24.9648C79.3535 24.625 79.1016 24.1914 78.9609 23.6641C78.4805 24.4727 77.8359 25.1289 77.0273 25.6328C76.2188 26.1484 75.2988 26.4062 74.2676 26.4062C73.752 26.4062 73.2305 26.3477 72.7031 26.2305C72.1758 26.1133 71.6895 25.9199 71.2441 25.6504C70.8105 25.3809 70.4531 25.0293 70.1719 24.5957C69.9023 24.1504 69.7676 23.5996 69.7676 22.9434C69.7676 22.123 69.9258 21.4141 70.2422 20.8164C70.5703 20.207 71.0039 19.7031 71.543 19.3047C72.082 18.8945 72.6973 18.5898 73.3887 18.3906C74.0801 18.1914 74.7949 18.0918 75.5332 18.0918C76.0371 18.0918 76.5234 18.1504 76.9922 18.2676C77.4727 18.3848 77.959 18.5898 78.4512 18.8828C78.4746 18.2852 78.5215 17.6875 78.5918 17.0898C78.6738 16.4922 78.7441 15.9355 78.8027 15.4199C78.8379 15.1152 78.8613 14.8691 78.873 14.6816C78.8965 14.4941 78.9141 14.3418 78.9258 14.2246C78.9375 14.1074 78.9434 14.0195 78.9434 13.9609C78.9551 13.9023 78.9609 13.8496 78.9609 13.8027C78.9609 12.7363 78.7676 11.8867 78.3809 11.2539C77.9941 10.6211 77.4785 10.3047 76.834 10.3047C76.5293 10.3281 76.2188 10.3809 75.9023 10.4629C75.5859 10.5449 75.2988 10.6621 75.041 10.8145C74.7832 10.9551 74.5723 11.1367 74.4082 11.3594C74.2441 11.5703 74.1621 11.8223 74.1621 12.1152C74.1621 12.4316 74.2617 12.6836 74.4609 12.8711C74.6602 13.0469 74.877 13.2285 75.1113 13.416C75.3574 13.5918 75.5801 13.7969 75.7793 14.0312C75.9785 14.2656 76.0781 14.5879 76.0781 14.998C76.0781 15.4316 76.0078 15.7949 75.8672 16.0879C75.7383 16.3691 75.5625 16.5977 75.3398 16.7734C75.1172 16.9492 74.8652 17.0781 74.584 17.1602C74.3027 17.2305 74.0215 17.2656 73.7402 17.2656C73.4473 17.2656 73.1543 17.2188 72.8613 17.125C72.5801 17.0195 72.3223 16.8613 72.0879 16.6504C71.8652 16.4395 71.6777 16.1641 71.5254 15.8242C71.3848 15.4844 71.3145 15.0742 71.3145 14.5938C71.3145 13.9492 71.4727 13.334 71.7891 12.748C72.1055 12.1621 72.5215 11.6465 73.0371 11.2012C73.5527 10.7559 74.1387 10.3984 74.7949 10.1289C75.4512 9.84766 76.1191 9.69531 76.7988 9.67188C77.4316 9.67188 78.1172 9.80078 78.8555 10.0586C79.6055 10.3164 80.3027 10.7559 80.9473 11.377C81.6035 11.998 82.1484 12.8301 82.582 13.873C83.0156 14.916 83.2324 16.2227 83.2324 17.793C83.2324 18.5312 83.2031 19.2344 83.1445 19.9023C83.0977 20.5703 83.0449 21.1914 82.9863 21.7656C82.9277 22.3281 82.8691 22.8438 82.8105 23.3125C82.7637 23.7812 82.7402 24.1855 82.7402 24.5254C82.7402 24.8652 82.7695 25.1348 82.8281 25.334C82.8984 25.5332 83.0332 25.6504 83.2324 25.6855H83.3027ZM78.6621 22.7324C78.5918 22.334 78.5391 21.918 78.5039 21.4844C78.4688 21.0391 78.4512 20.5938 78.4512 20.1484V19.6738C78.123 19.4043 77.7656 19.2051 77.3789 19.0762C77.0039 18.9473 76.6641 18.8828 76.3594 18.8828C75.6211 18.8828 75.0586 19.1875 74.6719 19.7969C74.2852 20.4062 74.0918 21.2148 74.0918 22.2227C74.0918 22.6445 74.1328 23.0371 74.2148 23.4004C74.3086 23.7637 74.4316 24.0801 74.584 24.3496C74.748 24.6074 74.9414 24.8125 75.1641 24.9648C75.3984 25.1055 75.6562 25.1758 75.9375 25.1758C76.2188 25.1758 76.4883 25.1055 76.7461 24.9648C77.0156 24.8242 77.2676 24.6426 77.502 24.4199C77.7363 24.1855 77.9531 23.9219 78.1523 23.6289C78.3516 23.3359 78.5215 23.0371 78.6621 22.7324ZM95.9941 24.3145L100.072 24.2793L100.424 0.742188L95.8887 0.671875V0.0214844L105.293 0.126953L113.607 16.3164L119.426 0.197266L129.691 0.302734V0.953125L126.053 0.917969C126.041 1.02344 126.023 1.24609 126 1.58594C125.988 1.91406 125.965 2.42969 125.93 3.13281C125.906 3.83594 125.877 4.75586 125.842 5.89258C125.807 7.0293 125.766 8.45312 125.719 10.1641C125.672 11.8633 125.625 13.8848 125.578 16.2285C125.531 18.5723 125.484 21.3027 125.438 24.4199H129.762V25.0703H114.715V24.4199H118.863L119.285 2.42969L110.936 25.4395L100.969 6.2793L100.705 24.2793L104.607 24.2441V24.8945L95.9941 24.9648V24.3145ZM145.354 25.6855C145.611 25.6621 145.857 25.5332 146.092 25.2988C146.291 25.0996 146.496 24.7832 146.707 24.3496C146.918 23.9043 147.094 23.2715 147.234 22.4512L147.885 22.5215C147.721 23.4941 147.498 24.2383 147.217 24.7539C146.947 25.2695 146.672 25.6445 146.391 25.8789C146.062 26.1602 145.717 26.3125 145.354 26.3359C145.072 26.3359 144.709 26.2949 144.264 26.2129C143.83 26.1309 143.396 25.9844 142.963 25.7734C142.529 25.5742 142.131 25.3047 141.768 24.9648C141.404 24.625 141.152 24.1914 141.012 23.6641C140.531 24.4727 139.887 25.1289 139.078 25.6328C138.27 26.1484 137.35 26.4062 136.318 26.4062C135.803 26.4062 135.281 26.3477 134.754 26.2305C134.227 26.1133 133.74 25.9199 133.295 25.6504C132.861 25.3809 132.504 25.0293 132.223 24.5957C131.953 24.1504 131.818 23.5996 131.818 22.9434C131.818 22.123 131.977 21.4141 132.293 20.8164C132.621 20.207 133.055 19.7031 133.594 19.3047C134.133 18.8945 134.748 18.5898 135.439 18.3906C136.131 18.1914 136.846 18.0918 137.584 18.0918C138.088 18.0918 138.574 18.1504 139.043 18.2676C139.523 18.3848 140.01 18.5898 140.502 18.8828C140.525 18.2852 140.572 17.6875 140.643 17.0898C140.725 16.4922 140.795 15.9355 140.854 15.4199C140.889 15.1152 140.912 14.8691 140.924 14.6816C140.947 14.4941 140.965 14.3418 140.977 14.2246C140.988 14.1074 140.994 14.0195 140.994 13.9609C141.006 13.9023 141.012 13.8496 141.012 13.8027C141.012 12.7363 140.818 11.8867 140.432 11.2539C140.045 10.6211 139.529 10.3047 138.885 10.3047C138.58 10.3281 138.27 10.3809 137.953 10.4629C137.637 10.5449 137.35 10.6621 137.092 10.8145C136.834 10.9551 136.623 11.1367 136.459 11.3594C136.295 11.5703 136.213 11.8223 136.213 12.1152C136.213 12.4316 136.312 12.6836 136.512 12.8711C136.711 13.0469 136.928 13.2285 137.162 13.416C137.408 13.5918 137.631 13.7969 137.83 14.0312C138.029 14.2656 138.129 14.5879 138.129 14.998C138.129 15.4316 138.059 15.7949 137.918 16.0879C137.789 16.3691 137.613 16.5977 137.391 16.7734C137.168 16.9492 136.916 17.0781 136.635 17.1602C136.354 17.2305 136.072 17.2656 135.791 17.2656C135.498 17.2656 135.205 17.2188 134.912 17.125C134.631 17.0195 134.373 16.8613 134.139 16.6504C133.916 16.4395 133.729 16.1641 133.576 15.8242C133.436 15.4844 133.365 15.0742 133.365 14.5938C133.365 13.9492 133.523 13.334 133.84 12.748C134.156 12.1621 134.572 11.6465 135.088 11.2012C135.604 10.7559 136.189 10.3984 136.846 10.1289C137.502 9.84766 138.17 9.69531 138.85 9.67188C139.482 9.67188 140.168 9.80078 140.906 10.0586C141.656 10.3164 142.354 10.7559 142.998 11.377C143.654 11.998 144.199 12.8301 144.633 13.873C145.066 14.916 145.283 16.2227 145.283 17.793C145.283 18.5312 145.254 19.2344 145.195 19.9023C145.148 20.5703 145.096 21.1914 145.037 21.7656C144.979 22.3281 144.92 22.8438 144.861 23.3125C144.814 23.7812 144.791 24.1855 144.791 24.5254C144.791 24.8652 144.82 25.1348 144.879 25.334C144.949 25.5332 145.084 25.6504 145.283 25.6855H145.354ZM140.713 22.7324C140.643 22.334 140.59 21.918 140.555 21.4844C140.52 21.0391 140.502 20.5938 140.502 20.1484V19.6738C140.174 19.4043 139.816 19.2051 139.43 19.0762C139.055 18.9473 138.715 18.8828 138.41 18.8828C137.672 18.8828 137.109 19.1875 136.723 19.7969C136.336 20.4062 136.143 21.2148 136.143 22.2227C136.143 22.6445 136.184 23.0371 136.266 23.4004C136.359 23.7637 136.482 24.0801 136.635 24.3496C136.799 24.6074 136.992 24.8125 137.215 24.9648C137.449 25.1055 137.707 25.1758 137.988 25.1758C138.27 25.1758 138.539 25.1055 138.797 24.9648C139.066 24.8242 139.318 24.6426 139.553 24.4199C139.787 24.1855 140.004 23.9219 140.203 23.6289C140.402 23.3359 140.572 23.0371 140.713 22.7324ZM148.113 9.54883L156.938 9.33789L156.832 14.1367C157.043 13.6094 157.283 13.1055 157.553 12.625C157.834 12.1328 158.15 11.6934 158.502 11.3066C158.854 10.9199 159.246 10.6035 159.68 10.3574C160.113 10.0996 160.594 9.94141 161.121 9.88281C161.789 9.88281 162.416 10.0059 163.002 10.252C163.588 10.4863 164.121 10.8145 164.602 11.2363C165.094 11.6465 165.527 12.1328 165.902 12.6953C166.277 13.2578 166.594 13.8555 166.852 14.4883C167.109 15.1211 167.297 15.7715 167.414 16.4395C167.531 17.0957 167.578 17.7402 167.555 18.373C167.543 19.0293 167.525 19.7031 167.502 20.3945C167.479 20.9922 167.449 21.6543 167.414 22.3809C167.391 23.0957 167.355 23.7988 167.309 24.4902L169.787 24.5254V25.1758L160.031 24.9648V24.3145L161.947 24.3496C162.229 21.2207 162.299 18.0508 162.158 14.8398C162.193 13.375 162.111 12.3086 161.912 11.6406C161.725 10.9727 161.326 10.627 160.717 10.6035C160.518 10.6621 160.254 10.7734 159.926 10.9375C159.598 11.1016 159.246 11.3887 158.871 11.7988C158.508 12.1973 158.139 12.748 157.764 13.4512C157.4 14.1426 157.078 15.0391 156.797 16.1406L156.621 24.3145H158.449V24.9648H149.309V24.3145H150.891L151.242 10.1289L148.113 10.1992V9.54883ZM170.191 9.54883L179.016 9.33789L178.91 14.1367C179.121 13.6094 179.361 13.1055 179.631 12.625C179.912 12.1328 180.229 11.6934 180.58 11.3066C180.932 10.9199 181.324 10.6035 181.758 10.3574C182.191 10.0996 182.672 9.94141 183.199 9.88281C183.867 9.88281 184.494 10.0059 185.08 10.252C185.666 10.4863 186.199 10.8145 186.68 11.2363C187.172 11.6465 187.605 12.1328 187.98 12.6953C188.355 13.2578 188.672 13.8555 188.93 14.4883C189.188 15.1211 189.375 15.7715 189.492 16.4395C189.609 17.0957 189.656 17.7402 189.633 18.373C189.621 19.0293 189.604 19.7031 189.58 20.3945C189.557 20.9922 189.527 21.6543 189.492 22.3809C189.469 23.0957 189.434 23.7988 189.387 24.4902L191.865 24.5254V25.1758L182.109 24.9648V24.3145L184.025 24.3496C184.307 21.2207 184.377 18.0508 184.236 14.8398C184.271 13.375 184.189 12.3086 183.99 11.6406C183.803 10.9727 183.404 10.627 182.795 10.6035C182.596 10.6621 182.332 10.7734 182.004 10.9375C181.676 11.1016 181.324 11.3887 180.949 11.7988C180.586 12.1973 180.217 12.748 179.842 13.4512C179.479 14.1426 179.156 15.0391 178.875 16.1406L178.699 24.3145H180.527V24.9648H171.387V24.3145H172.969L173.32 10.1289L170.191 10.1992V9.54883Z" fill="#F7717D"/>
</svg>
